solid OpenSCAD_Model
  facet normal -1 0 0
    outer loop
      vertex 0 26 5
      vertex 0 56 6
      vertex 0 56 5
    endloop
  endfacet
  facet normal -1 -0 0
    outer loop
      vertex 0 56 6
      vertex 0 26 5
      vertex 0 26 6
    endloop
  endfacet
  facet normal 0 0 1
    outer loop
      vertex 5 48.3 6
      vertex 9 50.3 6
      vertex 5 50.3 6
    endloop
  endfacet
  facet normal 0 0 1
    outer loop
      vertex 9 50.3 6
      vertex 5 48.3 6
      vertex 9 31.7 6
    endloop
  endfacet
  facet normal -0 0 1
    outer loop
      vertex 5 33.7 6
      vertex 9 31.7 6
      vertex 5 48.3 6
    endloop
  endfacet
  facet normal 0 0 1
    outer loop
      vertex 5 33.7 6
      vertex 5 31.7 6
      vertex 9 31.7 6
    endloop
  endfacet
  facet normal -0 0 1
    outer loop
      vertex 3 33.7 6
      vertex 5 31.7 6
      vertex 5 33.7 6
    endloop
  endfacet
  facet normal 0 -0 1
    outer loop
      vertex 3.76066 30.5607 6
      vertex 5 31.7 6
      vertex 3.27402 30.8858 6
    endloop
  endfacet
  facet normal 0 0 1
    outer loop
      vertex 5 30.7 6
      vertex 4.08582 30.074 6
      vertex 4.2 29.5 6
    endloop
  endfacet
  facet normal 0 0 1
    outer loop
      vertex 5 30.7 6
      vertex 3.76066 30.5607 6
      vertex 4.08582 30.074 6
    endloop
  endfacet
  facet normal 0 0 1
    outer loop
      vertex 5 31.7 6
      vertex 3.76066 30.5607 6
      vertex 5 30.7 6
    endloop
  endfacet
  facet normal 0 0 1
    outer loop
      vertex 5 31.7 6
      vertex 3 33.7 6
      vertex 3.27402 30.8858 6
    endloop
  endfacet
  facet normal 0 0 1
    outer loop
      vertex 3 33.7 6
      vertex 2.7 31 6
      vertex 3.27402 30.8858 6
    endloop
  endfacet
  facet normal 0 0 1
    outer loop
      vertex 1.63934 51.4393 6
      vertex 3 48.3 6
      vertex 2.12597 51.1142 6
    endloop
  endfacet
  facet normal 0 0 1
    outer loop
      vertex 1.31418 51.926 6
      vertex 3 48.3 6
      vertex 1.63934 51.4393 6
    endloop
  endfacet
  facet normal 0 0 1
    outer loop
      vertex 3 33.7 6
      vertex 2.12597 30.8858 6
      vertex 2.7 31 6
    endloop
  endfacet
  facet normal 0 0 1
    outer loop
      vertex 3 48.3 6
      vertex 1.31418 51.926 6
      vertex 3 33.7 6
    endloop
  endfacet
  facet normal 0 0 1
    outer loop
      vertex 3 33.7 6
      vertex 1.63934 30.5607 6
      vertex 2.12597 30.8858 6
    endloop
  endfacet
  facet normal 0 0 1
    outer loop
      vertex 1.31418 30.074 6
      vertex 3 33.7 6
      vertex 1.31418 51.926 6
    endloop
  endfacet
  facet normal 0 0 1
    outer loop
      vertex 3 33.7 6
      vertex 1.31418 30.074 6
      vertex 1.63934 30.5607 6
    endloop
  endfacet
  facet normal 0 0 1
    outer loop
      vertex 0 56 6
      vertex 1.31418 51.926 6
      vertex 1.2 52.5 6
    endloop
  endfacet
  facet normal 0 0 1
    outer loop
      vertex 1.31418 51.926 6
      vertex 0 56 6
      vertex 1.31418 30.074 6
    endloop
  endfacet
  facet normal 0 0 1
    outer loop
      vertex 5 51.3 6
      vertex 3.76066 51.4393 6
      vertex 5 50.3 6
    endloop
  endfacet
  facet normal -0 0 1
    outer loop
      vertex 3.27402 51.1142 6
      vertex 5 50.3 6
      vertex 3.76066 51.4393 6
    endloop
  endfacet
  facet normal 0 0 1
    outer loop
      vertex 5 50.3 6
      vertex 4 48.3 6
      vertex 5 48.3 6
    endloop
  endfacet
  facet normal 0 0 1
    outer loop
      vertex 5 50.3 6
      vertex 3.27402 51.1142 6
      vertex 4 48.3 6
    endloop
  endfacet
  facet normal 0 0 1
    outer loop
      vertex 3.27402 51.1142 6
      vertex 3 48.3 6
      vertex 4 48.3 6
    endloop
  endfacet
  facet normal 0 0 1
    outer loop
      vertex 2.12597 51.1142 6
      vertex 3 48.3 6
      vertex 2.7 51 6
    endloop
  endfacet
  facet normal -0 0 1
    outer loop
      vertex 2.7 51 6
      vertex 3 48.3 6
      vertex 3.27402 51.1142 6
    endloop
  endfacet
  facet normal 0 0 1
    outer loop
      vertex 30.1 36.7 6
      vertex 18.8858 31.374 6
      vertex 19 30.8 6
    endloop
  endfacet
  facet normal 0 0 1
    outer loop
      vertex 30.1 36.7 6
      vertex 18.5607 31.8607 6
      vertex 18.8858 31.374 6
    endloop
  endfacet
  facet normal 0 0 1
    outer loop
      vertex 30.1 36.7 6
      vertex 18.074 32.1858 6
      vertex 18.5607 31.8607 6
    endloop
  endfacet
  facet normal -0 0 1
    outer loop
      vertex 15 36.7 6
      vertex 18.074 32.1858 6
      vertex 30.1 36.7 6
    endloop
  endfacet
  facet normal 0 0 1
    outer loop
      vertex 18.074 32.1858 6
      vertex 15 36.7 6
      vertex 17.5 32.3 6
    endloop
  endfacet
  facet normal 0 0 1
    outer loop
      vertex 16.4393 31.8607 6
      vertex 15 30.7 6
      vertex 16.1142 31.374 6
    endloop
  endfacet
  facet normal 0 0 1
    outer loop
      vertex 15 30.7 6
      vertex 16.4393 31.8607 6
      vertex 15 36.7 6
    endloop
  endfacet
  facet normal 0 0 1
    outer loop
      vertex 16.926 32.1858 6
      vertex 15 36.7 6
      vertex 16.4393 31.8607 6
    endloop
  endfacet
  facet normal 0 0 1
    outer loop
      vertex 17.5 32.3 6
      vertex 15 36.7 6
      vertex 16.926 32.1858 6
    endloop
  endfacet
  facet normal 0 0 1
    outer loop
      vertex 34.1 56 6
      vertex 33.1 50.3 6
      vertex 34.1 50.3 6
    endloop
  endfacet
  facet normal 0 0 1
    outer loop
      vertex 33.1 50.3 6
      vertex 30.1 45.3 6
      vertex 33.1 31.7 6
    endloop
  endfacet
  facet normal -0 0 1
    outer loop
      vertex 18.8858 51.774 6
      vertex 33.1 50.3 6
      vertex 34.1 56 6
    endloop
  endfacet
  facet normal 0 0 1
    outer loop
      vertex 33.1 50.3 6
      vertex 19 51.2 6
      vertex 30.1 45.3 6
    endloop
  endfacet
  facet normal 0 0 1
    outer loop
      vertex 33.1 50.3 6
      vertex 18.8858 51.774 6
      vertex 19 51.2 6
    endloop
  endfacet
  facet normal 0 0 1
    outer loop
      vertex 34.1 56 6
      vertex 18.5607 52.2607 6
      vertex 18.8858 51.774 6
    endloop
  endfacet
  facet normal 0 0 1
    outer loop
      vertex 34.1 56 6
      vertex 18.074 52.5858 6
      vertex 18.5607 52.2607 6
    endloop
  endfacet
  facet normal 0 0 1
    outer loop
      vertex 34.1 56 6
      vertex 17.5 52.7 6
      vertex 18.074 52.5858 6
    endloop
  endfacet
  facet normal 0 0 1
    outer loop
      vertex 16.1142 51.774 6
      vertex 15 51.3 6
      vertex 16 51.2 6
    endloop
  endfacet
  facet normal 0 0 1
    outer loop
      vertex 16.4393 52.2607 6
      vertex 15 51.3 6
      vertex 16.1142 51.774 6
    endloop
  endfacet
  facet normal 0 0 1
    outer loop
      vertex 3.76066 53.5607 6
      vertex 16.4393 52.2607 6
      vertex 16.926 52.5858 6
    endloop
  endfacet
  facet normal 0 0 1
    outer loop
      vertex 16.4393 52.2607 6
      vertex 3.76066 53.5607 6
      vertex 15 51.3 6
    endloop
  endfacet
  facet normal 0 0 1
    outer loop
      vertex 0 56 6
      vertex 16.926 52.5858 6
      vertex 17.5 52.7 6
    endloop
  endfacet
  facet normal -0 0 1
    outer loop
      vertex 0 56 6
      vertex 17.5 52.7 6
      vertex 34.1 56 6
    endloop
  endfacet
  facet normal -0 0 1
    outer loop
      vertex 4.08582 51.926 6
      vertex 5 51.3 6
      vertex 4.2 52.5 6
    endloop
  endfacet
  facet normal -0 0 1
    outer loop
      vertex 3.76066 51.4393 6
      vertex 5 51.3 6
      vertex 4.08582 51.926 6
    endloop
  endfacet
  facet normal 0 0 1
    outer loop
      vertex 15 51.3 6
      vertex 4.08582 53.074 6
      vertex 5 51.3 6
    endloop
  endfacet
  facet normal 0 0 1
    outer loop
      vertex 5 51.3 6
      vertex 4.08582 53.074 6
      vertex 4.2 52.5 6
    endloop
  endfacet
  facet normal 0 0 1
    outer loop
      vertex 15 51.3 6
      vertex 3.76066 53.5607 6
      vertex 4.08582 53.074 6
    endloop
  endfacet
  facet normal 0 0 1
    outer loop
      vertex 16.926 52.5858 6
      vertex 3.27402 53.8858 6
      vertex 3.76066 53.5607 6
    endloop
  endfacet
  facet normal 0 0 1
    outer loop
      vertex 16.926 52.5858 6
      vertex 0 56 6
      vertex 3.27402 53.8858 6
    endloop
  endfacet
  facet normal 0 0 1
    outer loop
      vertex 0 26 6
      vertex 1.31418 30.074 6
      vertex 0 56 6
    endloop
  endfacet
  facet normal 0 0 1
    outer loop
      vertex 1.31418 53.074 6
      vertex 0 56 6
      vertex 1.2 52.5 6
    endloop
  endfacet
  facet normal 0 0 1
    outer loop
      vertex 1.63934 53.5607 6
      vertex 0 56 6
      vertex 1.31418 53.074 6
    endloop
  endfacet
  facet normal 0 0 1
    outer loop
      vertex 2.12597 53.8858 6
      vertex 0 56 6
      vertex 1.63934 53.5607 6
    endloop
  endfacet
  facet normal 0 0 1
    outer loop
      vertex 2.7 54 6
      vertex 0 56 6
      vertex 2.12597 53.8858 6
    endloop
  endfacet
  facet normal 0 0 1
    outer loop
      vertex 3.27402 53.8858 6
      vertex 0 56 6
      vertex 2.7 54 6
    endloop
  endfacet
  facet normal -0 0 1
    outer loop
      vertex 33.1 31.7 6
      vertex 34.1 26 6
      vertex 34.1 31.7 6
    endloop
  endfacet
  facet normal -0 0 1
    outer loop
      vertex 30.1 36.7 6
      vertex 33.1 31.7 6
      vertex 30.1 45.3 6
    endloop
  endfacet
  facet normal 0 0 1
    outer loop
      vertex 19 30.8 6
      vertex 33.1 31.7 6
      vertex 30.1 36.7 6
    endloop
  endfacet
  facet normal 0 0 1
    outer loop
      vertex 18.8858 30.226 6
      vertex 33.1 31.7 6
      vertex 19 30.8 6
    endloop
  endfacet
  facet normal 0 0 1
    outer loop
      vertex 33.1 31.7 6
      vertex 18.8858 30.226 6
      vertex 34.1 26 6
    endloop
  endfacet
  facet normal -0 0 1
    outer loop
      vertex 18.5607 29.7393 6
      vertex 34.1 26 6
      vertex 18.8858 30.226 6
    endloop
  endfacet
  facet normal -0 0 1
    outer loop
      vertex 18.074 29.4142 6
      vertex 34.1 26 6
      vertex 18.5607 29.7393 6
    endloop
  endfacet
  facet normal -0 0 1
    outer loop
      vertex 17.5 29.3 6
      vertex 34.1 26 6
      vertex 18.074 29.4142 6
    endloop
  endfacet
  facet normal 0 0 1
    outer loop
      vertex 16.1142 31.374 6
      vertex 15 30.7 6
      vertex 16 30.8 6
    endloop
  endfacet
  facet normal -0 0 1
    outer loop
      vertex 15 30.7 6
      vertex 16.1142 30.226 6
      vertex 16 30.8 6
    endloop
  endfacet
  facet normal 0 0 1
    outer loop
      vertex 15 30.7 6
      vertex 16.4393 29.7393 6
      vertex 16.1142 30.226 6
    endloop
  endfacet
  facet normal 0 0 1
    outer loop
      vertex 3.76066 28.4393 6
      vertex 16.4393 29.7393 6
      vertex 15 30.7 6
    endloop
  endfacet
  facet normal 0 0 1
    outer loop
      vertex 4.08582 28.926 6
      vertex 15 30.7 6
      vertex 5 30.7 6
    endloop
  endfacet
  facet normal 0 0 1
    outer loop
      vertex 3.76066 28.4393 6
      vertex 15 30.7 6
      vertex 4.08582 28.926 6
    endloop
  endfacet
  facet normal 0 0 1
    outer loop
      vertex 16.4393 29.7393 6
      vertex 3.76066 28.4393 6
      vertex 16.926 29.4142 6
    endloop
  endfacet
  facet normal 0 0 1
    outer loop
      vertex 4.08582 28.926 6
      vertex 5 30.7 6
      vertex 4.2 29.5 6
    endloop
  endfacet
  facet normal 0 0 1
    outer loop
      vertex 3.27402 28.1142 6
      vertex 16.926 29.4142 6
      vertex 3.76066 28.4393 6
    endloop
  endfacet
  facet normal 0 0 1
    outer loop
      vertex 0 26 6
      vertex 16.926 29.4142 6
      vertex 3.27402 28.1142 6
    endloop
  endfacet
  facet normal 0 0 1
    outer loop
      vertex 16.926 29.4142 6
      vertex 0 26 6
      vertex 17.5 29.3 6
    endloop
  endfacet
  facet normal 0 0 1
    outer loop
      vertex 0 26 6
      vertex 3.27402 28.1142 6
      vertex 2.7 28 6
    endloop
  endfacet
  facet normal 0 0 1
    outer loop
      vertex 17.5 29.3 6
      vertex 0 26 6
      vertex 34.1 26 6
    endloop
  endfacet
  facet normal 0 0 1
    outer loop
      vertex 2.12597 28.1142 6
      vertex 0 26 6
      vertex 2.7 28 6
    endloop
  endfacet
  facet normal 0 0 1
    outer loop
      vertex 1.63934 28.4393 6
      vertex 0 26 6
      vertex 2.12597 28.1142 6
    endloop
  endfacet
  facet normal 0 0 1
    outer loop
      vertex 1.31418 28.926 6
      vertex 0 26 6
      vertex 1.63934 28.4393 6
    endloop
  endfacet
  facet normal 0 0 1
    outer loop
      vertex 1.2 29.5 6
      vertex 0 26 6
      vertex 1.31418 28.926 6
    endloop
  endfacet
  facet normal 0 0 1
    outer loop
      vertex 1.31418 30.074 6
      vertex 0 26 6
      vertex 1.2 29.5 6
    endloop
  endfacet
  facet normal -0 0 1
    outer loop
      vertex 18.8858 50.626 6
      vertex 30.1 45.3 6
      vertex 19 51.2 6
    endloop
  endfacet
  facet normal -0 0 1
    outer loop
      vertex 18.5607 50.1393 6
      vertex 30.1 45.3 6
      vertex 18.8858 50.626 6
    endloop
  endfacet
  facet normal -0 0 1
    outer loop
      vertex 18.074 49.8142 6
      vertex 30.1 45.3 6
      vertex 18.5607 50.1393 6
    endloop
  endfacet
  facet normal 0 0 1
    outer loop
      vertex 15 45.3 6
      vertex 18.074 49.8142 6
      vertex 17.5 49.7 6
    endloop
  endfacet
  facet normal 0 0 1
    outer loop
      vertex 15 45.3 6
      vertex 17.5 49.7 6
      vertex 16.926 49.8142 6
    endloop
  endfacet
  facet normal 0 0 1
    outer loop
      vertex 15 50.3 6
      vertex 16 51.2 6
      vertex 15 51.3 6
    endloop
  endfacet
  facet normal 0 0 1
    outer loop
      vertex 16 51.2 6
      vertex 15 50.3 6
      vertex 16.1142 50.626 6
    endloop
  endfacet
  facet normal 0 0 1
    outer loop
      vertex 16.1142 50.626 6
      vertex 15 50.3 6
      vertex 16.4393 50.1393 6
    endloop
  endfacet
  facet normal 0 0 1
    outer loop
      vertex 15 50.3 6
      vertex 16.926 49.8142 6
      vertex 16.4393 50.1393 6
    endloop
  endfacet
  facet normal 0 0 1
    outer loop
      vertex 15 45.3 6
      vertex 16.926 49.8142 6
      vertex 15 50.3 6
    endloop
  endfacet
  facet normal 0 0 1
    outer loop
      vertex 18.074 49.8142 6
      vertex 15 45.3 6
      vertex 30.1 45.3 6
    endloop
  endfacet
  facet normal 0 0 0
    outer loop
      vertex 9 50.3 6
      vertex 15 50.3 6
      vertex 5 50.3 6
    endloop
  endfacet
  facet normal 1 -0 0
    outer loop
      vertex 34.1 26 6
      vertex 34.1 31.7 5
      vertex 34.1 31.7 6
    endloop
  endfacet
  facet normal 1 0 0
    outer loop
      vertex 34.1 31.7 5
      vertex 34.1 26 6
      vertex 34.1 26 5
    endloop
  endfacet
  facet normal 1 -0 0
    outer loop
      vertex 34.1 50.3 6
      vertex 34.1 56 5
      vertex 34.1 56 6
    endloop
  endfacet
  facet normal 1 0 0
    outer loop
      vertex 34.1 56 5
      vertex 34.1 50.3 6
      vertex 34.1 50.3 5
    endloop
  endfacet
  facet normal 0 0 -1
    outer loop
      vertex 3.27402 30.8858 5
      vertex 16.4393 31.8607 5
      vertex 3.76066 30.5607 5
    endloop
  endfacet
  facet normal 0 0 -1
    outer loop
      vertex 16.4393 50.1393 5
      vertex 4.08582 51.926 5
      vertex 4.2 52.5 5
    endloop
  endfacet
  facet normal -0 0 -1
    outer loop
      vertex 16.4393 31.8607 5
      vertex 3.27402 30.8858 5
      vertex 16.4393 50.1393 5
    endloop
  endfacet
  facet normal 0 0 -1
    outer loop
      vertex 16.4393 50.1393 5
      vertex 3.76066 51.4393 5
      vertex 4.08582 51.926 5
    endloop
  endfacet
  facet normal 0 0 -1
    outer loop
      vertex 3.27402 51.1142 5
      vertex 16.4393 50.1393 5
      vertex 3.27402 30.8858 5
    endloop
  endfacet
  facet normal 0 0 -1
    outer loop
      vertex 16.4393 50.1393 5
      vertex 3.27402 51.1142 5
      vertex 3.76066 51.4393 5
    endloop
  endfacet
  facet normal 0 0 -1
    outer loop
      vertex 2.7 31 5
      vertex 3.27402 51.1142 5
      vertex 3.27402 30.8858 5
    endloop
  endfacet
  facet normal 0 0 -1
    outer loop
      vertex 2.7 31 5
      vertex 2.7 51 5
      vertex 3.27402 51.1142 5
    endloop
  endfacet
  facet normal 0 0 -1
    outer loop
      vertex 2.12597 30.8858 5
      vertex 2.7 51 5
      vertex 2.7 31 5
    endloop
  endfacet
  facet normal 0 0 -1
    outer loop
      vertex 2.12597 30.8858 5
      vertex 2.12597 51.1142 5
      vertex 2.7 51 5
    endloop
  endfacet
  facet normal 0 0 -1
    outer loop
      vertex 1.63934 30.5607 5
      vertex 2.12597 51.1142 5
      vertex 2.12597 30.8858 5
    endloop
  endfacet
  facet normal 0 0 -1
    outer loop
      vertex 1.63934 30.5607 5
      vertex 1.63934 51.4393 5
      vertex 2.12597 51.1142 5
    endloop
  endfacet
  facet normal 0 0 -1
    outer loop
      vertex 1.31418 30.074 5
      vertex 1.63934 51.4393 5
      vertex 1.63934 30.5607 5
    endloop
  endfacet
  facet normal 0 0 -1
    outer loop
      vertex 1.31418 30.074 5
      vertex 1.31418 51.926 5
      vertex 1.63934 51.4393 5
    endloop
  endfacet
  facet normal 0 0 -1
    outer loop
      vertex 0 26 5
      vertex 1.31418 30.074 5
      vertex 1.2 29.5 5
    endloop
  endfacet
  facet normal -0 0 -1
    outer loop
      vertex 1.31418 30.074 5
      vertex 0 26 5
      vertex 1.31418 51.926 5
    endloop
  endfacet
  facet normal 0 0 -1
    outer loop
      vertex 34.1 31.7 5
      vertex 18.5607 31.8607 5
      vertex 34.1 50.3 5
    endloop
  endfacet
  facet normal 0 0 -1
    outer loop
      vertex 34.1 50.3 5
      vertex 18.8858 50.626 5
      vertex 19 51.2 5
    endloop
  endfacet
  facet normal 0 0 -1
    outer loop
      vertex 18.5607 50.1393 5
      vertex 34.1 50.3 5
      vertex 18.5607 31.8607 5
    endloop
  endfacet
  facet normal -0 0 -1
    outer loop
      vertex 34.1 50.3 5
      vertex 18.5607 50.1393 5
      vertex 18.8858 50.626 5
    endloop
  endfacet
  facet normal 0 0 -1
    outer loop
      vertex 18.074 32.1858 5
      vertex 18.5607 50.1393 5
      vertex 18.5607 31.8607 5
    endloop
  endfacet
  facet normal 0 0 -1
    outer loop
      vertex 18.074 32.1858 5
      vertex 18.074 49.8142 5
      vertex 18.5607 50.1393 5
    endloop
  endfacet
  facet normal 0 0 -1
    outer loop
      vertex 17.5 32.3 5
      vertex 18.074 49.8142 5
      vertex 18.074 32.1858 5
    endloop
  endfacet
  facet normal 0 0 -1
    outer loop
      vertex 17.5 32.3 5
      vertex 17.5 49.7 5
      vertex 18.074 49.8142 5
    endloop
  endfacet
  facet normal 0 0 -1
    outer loop
      vertex 16.926 32.1858 5
      vertex 17.5 49.7 5
      vertex 17.5 32.3 5
    endloop
  endfacet
  facet normal 0 0 -1
    outer loop
      vertex 16.926 32.1858 5
      vertex 16.926 49.8142 5
      vertex 17.5 49.7 5
    endloop
  endfacet
  facet normal 0 0 -1
    outer loop
      vertex 16.4393 31.8607 5
      vertex 16.926 49.8142 5
      vertex 16.926 32.1858 5
    endloop
  endfacet
  facet normal 0 0 -1
    outer loop
      vertex 16.4393 31.8607 5
      vertex 16.4393 50.1393 5
      vertex 16.926 49.8142 5
    endloop
  endfacet
  facet normal -0 0 -1
    outer loop
      vertex 16 30.8 5
      vertex 4.08582 30.074 5
      vertex 16.1142 31.374 5
    endloop
  endfacet
  facet normal 0 0 -1
    outer loop
      vertex 3.76066 30.5607 5
      vertex 16.1142 31.374 5
      vertex 4.08582 30.074 5
    endloop
  endfacet
  facet normal 0 0 -1
    outer loop
      vertex 4.08582 30.074 5
      vertex 16 30.8 5
      vertex 4.2 29.5 5
    endloop
  endfacet
  facet normal -0 0 -1
    outer loop
      vertex 16.1142 31.374 5
      vertex 3.76066 30.5607 5
      vertex 16.4393 31.8607 5
    endloop
  endfacet
  facet normal 0 0 -1
    outer loop
      vertex 18.8858 30.226 5
      vertex 34.1 31.7 5
      vertex 34.1 26 5
    endloop
  endfacet
  facet normal 0 0 -1
    outer loop
      vertex 18.8858 31.374 5
      vertex 34.1 31.7 5
      vertex 19 30.8 5
    endloop
  endfacet
  facet normal 0 0 -1
    outer loop
      vertex 18.5607 31.8607 5
      vertex 34.1 31.7 5
      vertex 18.8858 31.374 5
    endloop
  endfacet
  facet normal 0 0 -1
    outer loop
      vertex 34.1 31.7 5
      vertex 18.8858 30.226 5
      vertex 19 30.8 5
    endloop
  endfacet
  facet normal 0 0 -1
    outer loop
      vertex 34.1 26 5
      vertex 18.5607 29.7393 5
      vertex 18.8858 30.226 5
    endloop
  endfacet
  facet normal 0 0 -1
    outer loop
      vertex 34.1 26 5
      vertex 18.074 29.4142 5
      vertex 18.5607 29.7393 5
    endloop
  endfacet
  facet normal 0 0 -1
    outer loop
      vertex 34.1 26 5
      vertex 17.5 29.3 5
      vertex 18.074 29.4142 5
    endloop
  endfacet
  facet normal 0 0 -1
    outer loop
      vertex 16.4393 50.1393 5
      vertex 4.2 52.5 5
      vertex 16.1142 50.626 5
    endloop
  endfacet
  facet normal -0 0 -1
    outer loop
      vertex 16.1142 30.226 5
      vertex 4.2 29.5 5
      vertex 16 30.8 5
    endloop
  endfacet
  facet normal 0 0 -1
    outer loop
      vertex 4.08582 28.926 5
      vertex 16.1142 30.226 5
      vertex 16.4393 29.7393 5
    endloop
  endfacet
  facet normal 0 0 -1
    outer loop
      vertex 3.76066 28.4393 5
      vertex 16.4393 29.7393 5
      vertex 16.926 29.4142 5
    endloop
  endfacet
  facet normal 0 0 -1
    outer loop
      vertex 0 26 5
      vertex 16.926 29.4142 5
      vertex 17.5 29.3 5
    endloop
  endfacet
  facet normal 0 0 -1
    outer loop
      vertex 0 26 5
      vertex 17.5 29.3 5
      vertex 34.1 26 5
    endloop
  endfacet
  facet normal 0 0 -1
    outer loop
      vertex 16.1142 30.226 5
      vertex 4.08582 28.926 5
      vertex 4.2 29.5 5
    endloop
  endfacet
  facet normal 0 0 -1
    outer loop
      vertex 16.4393 29.7393 5
      vertex 3.76066 28.4393 5
      vertex 4.08582 28.926 5
    endloop
  endfacet
  facet normal 0 0 -1
    outer loop
      vertex 16.926 29.4142 5
      vertex 3.27402 28.1142 5
      vertex 3.76066 28.4393 5
    endloop
  endfacet
  facet normal 0 0 -1
    outer loop
      vertex 16.926 29.4142 5
      vertex 0 26 5
      vertex 3.27402 28.1142 5
    endloop
  endfacet
  facet normal 0 0 -1
    outer loop
      vertex 0 56 5
      vertex 1.31418 51.926 5
      vertex 0 26 5
    endloop
  endfacet
  facet normal -0 0 -1
    outer loop
      vertex 1.31418 28.926 5
      vertex 0 26 5
      vertex 1.2 29.5 5
    endloop
  endfacet
  facet normal -0 0 -1
    outer loop
      vertex 1.63934 28.4393 5
      vertex 0 26 5
      vertex 1.31418 28.926 5
    endloop
  endfacet
  facet normal -0 0 -1
    outer loop
      vertex 2.12597 28.1142 5
      vertex 0 26 5
      vertex 1.63934 28.4393 5
    endloop
  endfacet
  facet normal -0 0 -1
    outer loop
      vertex 2.7 28 5
      vertex 0 26 5
      vertex 2.12597 28.1142 5
    endloop
  endfacet
  facet normal 0 0 -1
    outer loop
      vertex 3.27402 28.1142 5
      vertex 0 26 5
      vertex 2.7 28 5
    endloop
  endfacet
  facet normal 0 0 -1
    outer loop
      vertex 18.8858 51.774 5
      vertex 34.1 50.3 5
      vertex 19 51.2 5
    endloop
  endfacet
  facet normal 0 0 -1
    outer loop
      vertex 34.1 50.3 5
      vertex 18.8858 51.774 5
      vertex 34.1 56 5
    endloop
  endfacet
  facet normal 0 0 -1
    outer loop
      vertex 18.5607 52.2607 5
      vertex 34.1 56 5
      vertex 18.8858 51.774 5
    endloop
  endfacet
  facet normal 0 0 -1
    outer loop
      vertex 18.074 52.5858 5
      vertex 34.1 56 5
      vertex 18.5607 52.2607 5
    endloop
  endfacet
  facet normal 0 0 -1
    outer loop
      vertex 17.5 52.7 5
      vertex 34.1 56 5
      vertex 18.074 52.5858 5
    endloop
  endfacet
  facet normal 0 0 -1
    outer loop
      vertex 16.1142 50.626 5
      vertex 4.2 52.5 5
      vertex 16 51.2 5
    endloop
  endfacet
  facet normal 0 0 -1
    outer loop
      vertex 16 51.2 5
      vertex 4.2 52.5 5
      vertex 16.1142 51.774 5
    endloop
  endfacet
  facet normal 0 0 -1
    outer loop
      vertex 4.08582 53.074 5
      vertex 16.1142 51.774 5
      vertex 4.2 52.5 5
    endloop
  endfacet
  facet normal 0 0 -1
    outer loop
      vertex 16.1142 51.774 5
      vertex 4.08582 53.074 5
      vertex 16.4393 52.2607 5
    endloop
  endfacet
  facet normal 0 0 -1
    outer loop
      vertex 3.76066 53.5607 5
      vertex 16.4393 52.2607 5
      vertex 4.08582 53.074 5
    endloop
  endfacet
  facet normal 0 0 -1
    outer loop
      vertex 16.4393 52.2607 5
      vertex 3.76066 53.5607 5
      vertex 16.926 52.5858 5
    endloop
  endfacet
  facet normal 0 0 -1
    outer loop
      vertex 3.27402 53.8858 5
      vertex 16.926 52.5858 5
      vertex 3.76066 53.5607 5
    endloop
  endfacet
  facet normal 0 0 -1
    outer loop
      vertex 0 56 5
      vertex 16.926 52.5858 5
      vertex 3.27402 53.8858 5
    endloop
  endfacet
  facet normal 0 0 -1
    outer loop
      vertex 16.926 52.5858 5
      vertex 0 56 5
      vertex 17.5 52.7 5
    endloop
  endfacet
  facet normal 0 0 -1
    outer loop
      vertex 0 56 5
      vertex 3.27402 53.8858 5
      vertex 2.7 54 5
    endloop
  endfacet
  facet normal 0 0 -1
    outer loop
      vertex 17.5 52.7 5
      vertex 0 56 5
      vertex 34.1 56 5
    endloop
  endfacet
  facet normal 0 0 -1
    outer loop
      vertex 2.12597 53.8858 5
      vertex 0 56 5
      vertex 2.7 54 5
    endloop
  endfacet
  facet normal 0 0 -1
    outer loop
      vertex 1.63934 53.5607 5
      vertex 0 56 5
      vertex 2.12597 53.8858 5
    endloop
  endfacet
  facet normal 0 0 -1
    outer loop
      vertex 1.31418 53.074 5
      vertex 0 56 5
      vertex 1.63934 53.5607 5
    endloop
  endfacet
  facet normal 0 0 -1
    outer loop
      vertex 1.2 52.5 5
      vertex 0 56 5
      vertex 1.31418 53.074 5
    endloop
  endfacet
  facet normal 0 0 -1
    outer loop
      vertex 1.31418 51.926 5
      vertex 0 56 5
      vertex 1.2 52.5 5
    endloop
  endfacet
  facet normal 0 -1 0
    outer loop
      vertex 0 26 5
      vertex 34.1 26 6
      vertex 0 26 6
    endloop
  endfacet
  facet normal 0 -1 -0
    outer loop
      vertex 34.1 26 6
      vertex 0 26 5
      vertex 34.1 26 5
    endloop
  endfacet
  facet normal 0 1 -0
    outer loop
      vertex 34.1 56 5
      vertex 0 56 6
      vertex 34.1 56 6
    endloop
  endfacet
  facet normal 0 1 0
    outer loop
      vertex 0 56 6
      vertex 34.1 56 5
      vertex 0 56 5
    endloop
  endfacet
  facet normal -0.980785 -0.19509 0
    outer loop
      vertex 4.2 29.5 5
      vertex 4.08582 30.074 6
      vertex 4.08582 30.074 5
    endloop
  endfacet
  facet normal -0.980785 -0.19509 0
    outer loop
      vertex 4.08582 30.074 6
      vertex 4.2 29.5 5
      vertex 4.2 29.5 6
    endloop
  endfacet
  facet normal -0.195092 -0.980785 0
    outer loop
      vertex 2.7 31 5
      vertex 3.27402 30.8858 6
      vertex 2.7 31 6
    endloop
  endfacet
  facet normal -0.195092 -0.980785 -0
    outer loop
      vertex 3.27402 30.8858 6
      vertex 2.7 31 5
      vertex 3.27402 30.8858 5
    endloop
  endfacet
  facet normal 0.980785 0.19509 0
    outer loop
      vertex 1.31418 28.926 6
      vertex 1.2 29.5 5
      vertex 1.2 29.5 6
    endloop
  endfacet
  facet normal 0.980785 0.19509 0
    outer loop
      vertex 1.2 29.5 5
      vertex 1.31418 28.926 6
      vertex 1.31418 28.926 5
    endloop
  endfacet
  facet normal -0.831471 0.555569 0
    outer loop
      vertex 3.76066 28.4393 5
      vertex 4.08582 28.926 6
      vertex 4.08582 28.926 5
    endloop
  endfacet
  facet normal -0.831471 0.555569 0
    outer loop
      vertex 4.08582 28.926 6
      vertex 3.76066 28.4393 5
      vertex 3.76066 28.4393 6
    endloop
  endfacet
  facet normal -0.555568 0.831471 0
    outer loop
      vertex 3.76066 28.4393 5
      vertex 3.27402 28.1142 6
      vertex 3.76066 28.4393 6
    endloop
  endfacet
  facet normal -0.555568 0.831471 0
    outer loop
      vertex 3.27402 28.1142 6
      vertex 3.76066 28.4393 5
      vertex 3.27402 28.1142 5
    endloop
  endfacet
  facet normal -0.195092 0.980785 0
    outer loop
      vertex 3.27402 28.1142 5
      vertex 2.7 28 6
      vertex 3.27402 28.1142 6
    endloop
  endfacet
  facet normal -0.195092 0.980785 0
    outer loop
      vertex 2.7 28 6
      vertex 3.27402 28.1142 5
      vertex 2.7 28 5
    endloop
  endfacet
  facet normal -0.55557 -0.83147 0
    outer loop
      vertex 3.27402 30.8858 5
      vertex 3.76066 30.5607 6
      vertex 3.27402 30.8858 6
    endloop
  endfacet
  facet normal -0.55557 -0.83147 -0
    outer loop
      vertex 3.76066 30.5607 6
      vertex 3.27402 30.8858 5
      vertex 3.76066 30.5607 5
    endloop
  endfacet
  facet normal -0.83147 -0.55557 0
    outer loop
      vertex 4.08582 30.074 5
      vertex 3.76066 30.5607 6
      vertex 3.76066 30.5607 5
    endloop
  endfacet
  facet normal -0.83147 -0.55557 0
    outer loop
      vertex 3.76066 30.5607 6
      vertex 4.08582 30.074 5
      vertex 4.08582 30.074 6
    endloop
  endfacet
  facet normal 0.195092 -0.980785 0
    outer loop
      vertex 2.12597 30.8858 5
      vertex 2.7 31 6
      vertex 2.12597 30.8858 6
    endloop
  endfacet
  facet normal 0.195092 -0.980785 0
    outer loop
      vertex 2.7 31 6
      vertex 2.12597 30.8858 5
      vertex 2.7 31 5
    endloop
  endfacet
  facet normal 0.55557 -0.83147 0
    outer loop
      vertex 1.63934 30.5607 5
      vertex 2.12597 30.8858 6
      vertex 1.63934 30.5607 6
    endloop
  endfacet
  facet normal 0.55557 -0.83147 0
    outer loop
      vertex 2.12597 30.8858 6
      vertex 1.63934 30.5607 5
      vertex 2.12597 30.8858 5
    endloop
  endfacet
  facet normal 0.83147 -0.55557 0
    outer loop
      vertex 1.31418 30.074 6
      vertex 1.63934 30.5607 5
      vertex 1.63934 30.5607 6
    endloop
  endfacet
  facet normal 0.83147 -0.55557 0
    outer loop
      vertex 1.63934 30.5607 5
      vertex 1.31418 30.074 6
      vertex 1.31418 30.074 5
    endloop
  endfacet
  facet normal 0.831471 0.555569 0
    outer loop
      vertex 1.63934 28.4393 6
      vertex 1.31418 28.926 5
      vertex 1.31418 28.926 6
    endloop
  endfacet
  facet normal 0.831471 0.555569 0
    outer loop
      vertex 1.31418 28.926 5
      vertex 1.63934 28.4393 6
      vertex 1.63934 28.4393 5
    endloop
  endfacet
  facet normal 0.195092 0.980785 -0
    outer loop
      vertex 2.7 28 5
      vertex 2.12597 28.1142 6
      vertex 2.7 28 6
    endloop
  endfacet
  facet normal 0.195092 0.980785 0
    outer loop
      vertex 2.12597 28.1142 6
      vertex 2.7 28 5
      vertex 2.12597 28.1142 5
    endloop
  endfacet
  facet normal 0.555568 0.831471 -0
    outer loop
      vertex 2.12597 28.1142 5
      vertex 1.63934 28.4393 6
      vertex 2.12597 28.1142 6
    endloop
  endfacet
  facet normal 0.555568 0.831471 0
    outer loop
      vertex 1.63934 28.4393 6
      vertex 2.12597 28.1142 5
      vertex 1.63934 28.4393 5
    endloop
  endfacet
  facet normal 0.980785 -0.19509 0
    outer loop
      vertex 1.2 29.5 6
      vertex 1.31418 30.074 5
      vertex 1.31418 30.074 6
    endloop
  endfacet
  facet normal 0.980785 -0.19509 0
    outer loop
      vertex 1.31418 30.074 5
      vertex 1.2 29.5 6
      vertex 1.2 29.5 5
    endloop
  endfacet
  facet normal -0.980785 0.19509 0
    outer loop
      vertex 4.08582 28.926 5
      vertex 4.2 29.5 6
      vertex 4.2 29.5 5
    endloop
  endfacet
  facet normal -0.980785 0.19509 0
    outer loop
      vertex 4.2 29.5 6
      vertex 4.08582 28.926 5
      vertex 4.08582 28.926 6
    endloop
  endfacet
  facet normal -0.980785 -0.19509 0
    outer loop
      vertex 4.2 52.5 5
      vertex 4.08582 53.074 6
      vertex 4.08582 53.074 5
    endloop
  endfacet
  facet normal -0.980785 -0.19509 0
    outer loop
      vertex 4.08582 53.074 6
      vertex 4.2 52.5 5
      vertex 4.2 52.5 6
    endloop
  endfacet
  facet normal -0.195092 -0.980785 0
    outer loop
      vertex 2.7 54 5
      vertex 3.27402 53.8858 6
      vertex 2.7 54 6
    endloop
  endfacet
  facet normal -0.195092 -0.980785 -0
    outer loop
      vertex 3.27402 53.8858 6
      vertex 2.7 54 5
      vertex 3.27402 53.8858 5
    endloop
  endfacet
  facet normal 0.980785 0.19509 0
    outer loop
      vertex 1.31418 51.926 6
      vertex 1.2 52.5 5
      vertex 1.2 52.5 6
    endloop
  endfacet
  facet normal 0.980785 0.19509 0
    outer loop
      vertex 1.2 52.5 5
      vertex 1.31418 51.926 6
      vertex 1.31418 51.926 5
    endloop
  endfacet
  facet normal -0.831471 0.555569 0
    outer loop
      vertex 3.76066 51.4393 5
      vertex 4.08582 51.926 6
      vertex 4.08582 51.926 5
    endloop
  endfacet
  facet normal -0.831471 0.555569 0
    outer loop
      vertex 4.08582 51.926 6
      vertex 3.76066 51.4393 5
      vertex 3.76066 51.4393 6
    endloop
  endfacet
  facet normal -0.555568 0.831471 0
    outer loop
      vertex 3.76066 51.4393 5
      vertex 3.27402 51.1142 6
      vertex 3.76066 51.4393 6
    endloop
  endfacet
  facet normal -0.555568 0.831471 0
    outer loop
      vertex 3.27402 51.1142 6
      vertex 3.76066 51.4393 5
      vertex 3.27402 51.1142 5
    endloop
  endfacet
  facet normal -0.195092 0.980785 0
    outer loop
      vertex 3.27402 51.1142 5
      vertex 2.7 51 6
      vertex 3.27402 51.1142 6
    endloop
  endfacet
  facet normal -0.195092 0.980785 0
    outer loop
      vertex 2.7 51 6
      vertex 3.27402 51.1142 5
      vertex 2.7 51 5
    endloop
  endfacet
  facet normal -0.555568 -0.831471 0
    outer loop
      vertex 3.27402 53.8858 5
      vertex 3.76066 53.5607 6
      vertex 3.27402 53.8858 6
    endloop
  endfacet
  facet normal -0.555568 -0.831471 -0
    outer loop
      vertex 3.76066 53.5607 6
      vertex 3.27402 53.8858 5
      vertex 3.76066 53.5607 5
    endloop
  endfacet
  facet normal -0.831471 -0.555569 0
    outer loop
      vertex 4.08582 53.074 5
      vertex 3.76066 53.5607 6
      vertex 3.76066 53.5607 5
    endloop
  endfacet
  facet normal -0.831471 -0.555569 0
    outer loop
      vertex 3.76066 53.5607 6
      vertex 4.08582 53.074 5
      vertex 4.08582 53.074 6
    endloop
  endfacet
  facet normal 0.195092 -0.980785 0
    outer loop
      vertex 2.12597 53.8858 5
      vertex 2.7 54 6
      vertex 2.12597 53.8858 6
    endloop
  endfacet
  facet normal 0.195092 -0.980785 0
    outer loop
      vertex 2.7 54 6
      vertex 2.12597 53.8858 5
      vertex 2.7 54 5
    endloop
  endfacet
  facet normal 0.555568 -0.831471 0
    outer loop
      vertex 1.63934 53.5607 5
      vertex 2.12597 53.8858 6
      vertex 1.63934 53.5607 6
    endloop
  endfacet
  facet normal 0.555568 -0.831471 0
    outer loop
      vertex 2.12597 53.8858 6
      vertex 1.63934 53.5607 5
      vertex 2.12597 53.8858 5
    endloop
  endfacet
  facet normal 0.831471 -0.555569 0
    outer loop
      vertex 1.31418 53.074 6
      vertex 1.63934 53.5607 5
      vertex 1.63934 53.5607 6
    endloop
  endfacet
  facet normal 0.831471 -0.555569 0
    outer loop
      vertex 1.63934 53.5607 5
      vertex 1.31418 53.074 6
      vertex 1.31418 53.074 5
    endloop
  endfacet
  facet normal 0.831471 0.555569 0
    outer loop
      vertex 1.63934 51.4393 6
      vertex 1.31418 51.926 5
      vertex 1.31418 51.926 6
    endloop
  endfacet
  facet normal 0.831471 0.555569 0
    outer loop
      vertex 1.31418 51.926 5
      vertex 1.63934 51.4393 6
      vertex 1.63934 51.4393 5
    endloop
  endfacet
  facet normal 0.195092 0.980785 -0
    outer loop
      vertex 2.7 51 5
      vertex 2.12597 51.1142 6
      vertex 2.7 51 6
    endloop
  endfacet
  facet normal 0.195092 0.980785 0
    outer loop
      vertex 2.12597 51.1142 6
      vertex 2.7 51 5
      vertex 2.12597 51.1142 5
    endloop
  endfacet
  facet normal 0.555568 0.831471 -0
    outer loop
      vertex 2.12597 51.1142 5
      vertex 1.63934 51.4393 6
      vertex 2.12597 51.1142 6
    endloop
  endfacet
  facet normal 0.555568 0.831471 0
    outer loop
      vertex 1.63934 51.4393 6
      vertex 2.12597 51.1142 5
      vertex 1.63934 51.4393 5
    endloop
  endfacet
  facet normal 0.980785 -0.19509 0
    outer loop
      vertex 1.2 52.5 6
      vertex 1.31418 53.074 5
      vertex 1.31418 53.074 6
    endloop
  endfacet
  facet normal 0.980785 -0.19509 0
    outer loop
      vertex 1.31418 53.074 5
      vertex 1.2 52.5 6
      vertex 1.2 52.5 5
    endloop
  endfacet
  facet normal -0.980785 0.19509 0
    outer loop
      vertex 4.08582 51.926 5
      vertex 4.2 52.5 6
      vertex 4.2 52.5 5
    endloop
  endfacet
  facet normal -0.980785 0.19509 0
    outer loop
      vertex 4.2 52.5 6
      vertex 4.08582 51.926 5
      vertex 4.08582 51.926 6
    endloop
  endfacet
  facet normal -0.980785 -0.195092 0
    outer loop
      vertex 19 51.2 5
      vertex 18.8858 51.774 6
      vertex 18.8858 51.774 5
    endloop
  endfacet
  facet normal -0.980785 -0.195092 0
    outer loop
      vertex 18.8858 51.774 6
      vertex 19 51.2 5
      vertex 19 51.2 6
    endloop
  endfacet
  facet normal 0.195092 -0.980785 0
    outer loop
      vertex 16.926 52.5858 5
      vertex 17.5 52.7 6
      vertex 16.926 52.5858 6
    endloop
  endfacet
  facet normal 0.195092 -0.980785 0
    outer loop
      vertex 17.5 52.7 6
      vertex 16.926 52.5858 5
      vertex 17.5 52.7 5
    endloop
  endfacet
  facet normal 0.980785 0.195092 0
    outer loop
      vertex 16.1142 50.626 6
      vertex 16 51.2 5
      vertex 16 51.2 6
    endloop
  endfacet
  facet normal 0.980785 0.195092 0
    outer loop
      vertex 16 51.2 5
      vertex 16.1142 50.626 6
      vertex 16.1142 50.626 5
    endloop
  endfacet
  facet normal -0.555572 -0.831468 0
    outer loop
      vertex 18.074 52.5858 5
      vertex 18.5607 52.2607 6
      vertex 18.074 52.5858 6
    endloop
  endfacet
  facet normal -0.555572 -0.831468 -0
    outer loop
      vertex 18.5607 52.2607 6
      vertex 18.074 52.5858 5
      vertex 18.5607 52.2607 5
    endloop
  endfacet
  facet normal -0.831469 -0.555572 0
    outer loop
      vertex 18.8858 51.774 5
      vertex 18.5607 52.2607 6
      vertex 18.5607 52.2607 5
    endloop
  endfacet
  facet normal -0.831469 -0.555572 0
    outer loop
      vertex 18.5607 52.2607 6
      vertex 18.8858 51.774 5
      vertex 18.8858 51.774 6
    endloop
  endfacet
  facet normal 0.555571 -0.831469 0
    outer loop
      vertex 16.4393 52.2607 5
      vertex 16.926 52.5858 6
      vertex 16.4393 52.2607 6
    endloop
  endfacet
  facet normal 0.555571 -0.831469 0
    outer loop
      vertex 16.926 52.5858 6
      vertex 16.4393 52.2607 5
      vertex 16.926 52.5858 5
    endloop
  endfacet
  facet normal 0.83147 -0.555569 0
    outer loop
      vertex 16.1142 51.774 6
      vertex 16.4393 52.2607 5
      vertex 16.4393 52.2607 6
    endloop
  endfacet
  facet normal 0.83147 -0.555569 0
    outer loop
      vertex 16.4393 52.2607 5
      vertex 16.1142 51.774 6
      vertex 16.1142 51.774 5
    endloop
  endfacet
  facet normal -0.980785 0.195092 0
    outer loop
      vertex 18.8858 50.626 5
      vertex 19 51.2 6
      vertex 19 51.2 5
    endloop
  endfacet
  facet normal -0.980785 0.195092 0
    outer loop
      vertex 19 51.2 6
      vertex 18.8858 50.626 5
      vertex 18.8858 50.626 6
    endloop
  endfacet
  facet normal 0.831472 0.555566 0
    outer loop
      vertex 16.4393 50.1393 6
      vertex 16.1142 50.626 5
      vertex 16.1142 50.626 6
    endloop
  endfacet
  facet normal 0.831472 0.555566 0
    outer loop
      vertex 16.1142 50.626 5
      vertex 16.4393 50.1393 6
      vertex 16.4393 50.1393 5
    endloop
  endfacet
  facet normal -0.195092 -0.980785 0
    outer loop
      vertex 17.5 52.7 5
      vertex 18.074 52.5858 6
      vertex 17.5 52.7 6
    endloop
  endfacet
  facet normal -0.195092 -0.980785 -0
    outer loop
      vertex 18.074 52.5858 6
      vertex 17.5 52.7 5
      vertex 18.074 52.5858 5
    endloop
  endfacet
  facet normal 0.980785 -0.195092 0
    outer loop
      vertex 16 51.2 6
      vertex 16.1142 51.774 5
      vertex 16.1142 51.774 6
    endloop
  endfacet
  facet normal 0.980785 -0.195092 0
    outer loop
      vertex 16.1142 51.774 5
      vertex 16 51.2 6
      vertex 16 51.2 5
    endloop
  endfacet
  facet normal -0.555572 0.831468 0
    outer loop
      vertex 18.5607 50.1393 5
      vertex 18.074 49.8142 6
      vertex 18.5607 50.1393 6
    endloop
  endfacet
  facet normal -0.555572 0.831468 0
    outer loop
      vertex 18.074 49.8142 6
      vertex 18.5607 50.1393 5
      vertex 18.074 49.8142 5
    endloop
  endfacet
  facet normal -0.831471 0.555569 0
    outer loop
      vertex 18.5607 50.1393 5
      vertex 18.8858 50.626 6
      vertex 18.8858 50.626 5
    endloop
  endfacet
  facet normal -0.831471 0.555569 0
    outer loop
      vertex 18.8858 50.626 6
      vertex 18.5607 50.1393 5
      vertex 18.5607 50.1393 6
    endloop
  endfacet
  facet normal 0.555571 0.831469 -0
    outer loop
      vertex 16.926 49.8142 5
      vertex 16.4393 50.1393 6
      vertex 16.926 49.8142 6
    endloop
  endfacet
  facet normal 0.555571 0.831469 0
    outer loop
      vertex 16.4393 50.1393 6
      vertex 16.926 49.8142 5
      vertex 16.4393 50.1393 5
    endloop
  endfacet
  facet normal -0.195086 0.980786 0
    outer loop
      vertex 18.074 49.8142 5
      vertex 17.5 49.7 6
      vertex 18.074 49.8142 6
    endloop
  endfacet
  facet normal -0.195086 0.980786 0
    outer loop
      vertex 17.5 49.7 6
      vertex 18.074 49.8142 5
      vertex 17.5 49.7 5
    endloop
  endfacet
  facet normal 0.195086 0.980786 -0
    outer loop
      vertex 17.5 49.7 5
      vertex 16.926 49.8142 6
      vertex 17.5 49.7 6
    endloop
  endfacet
  facet normal 0.195086 0.980786 0
    outer loop
      vertex 16.926 49.8142 6
      vertex 17.5 49.7 5
      vertex 16.926 49.8142 5
    endloop
  endfacet
  facet normal -0.980785 -0.195092 0
    outer loop
      vertex 19 30.8 5
      vertex 18.8858 31.374 6
      vertex 18.8858 31.374 5
    endloop
  endfacet
  facet normal -0.980785 -0.195092 0
    outer loop
      vertex 18.8858 31.374 6
      vertex 19 30.8 5
      vertex 19 30.8 6
    endloop
  endfacet
  facet normal 0.195092 -0.980785 0
    outer loop
      vertex 16.926 32.1858 5
      vertex 17.5 32.3 6
      vertex 16.926 32.1858 6
    endloop
  endfacet
  facet normal 0.195092 -0.980785 0
    outer loop
      vertex 17.5 32.3 6
      vertex 16.926 32.1858 5
      vertex 17.5 32.3 5
    endloop
  endfacet
  facet normal 0.980785 0.195092 0
    outer loop
      vertex 16.1142 30.226 6
      vertex 16 30.8 5
      vertex 16 30.8 6
    endloop
  endfacet
  facet normal 0.980785 0.195092 0
    outer loop
      vertex 16 30.8 5
      vertex 16.1142 30.226 6
      vertex 16.1142 30.226 5
    endloop
  endfacet
  facet normal -0.555568 -0.831471 0
    outer loop
      vertex 18.074 32.1858 5
      vertex 18.5607 31.8607 6
      vertex 18.074 32.1858 6
    endloop
  endfacet
  facet normal -0.555568 -0.831471 -0
    outer loop
      vertex 18.5607 31.8607 6
      vertex 18.074 32.1858 5
      vertex 18.5607 31.8607 5
    endloop
  endfacet
  facet normal -0.831471 -0.555569 0
    outer loop
      vertex 18.8858 31.374 5
      vertex 18.5607 31.8607 6
      vertex 18.5607 31.8607 5
    endloop
  endfacet
  facet normal -0.831471 -0.555569 0
    outer loop
      vertex 18.5607 31.8607 6
      vertex 18.8858 31.374 5
      vertex 18.8858 31.374 6
    endloop
  endfacet
  facet normal 0.555566 -0.831472 0
    outer loop
      vertex 16.4393 31.8607 5
      vertex 16.926 32.1858 6
      vertex 16.4393 31.8607 6
    endloop
  endfacet
  facet normal 0.555566 -0.831472 0
    outer loop
      vertex 16.926 32.1858 6
      vertex 16.4393 31.8607 5
      vertex 16.926 32.1858 5
    endloop
  endfacet
  facet normal 0.831472 -0.555566 0
    outer loop
      vertex 16.1142 31.374 6
      vertex 16.4393 31.8607 5
      vertex 16.4393 31.8607 6
    endloop
  endfacet
  facet normal 0.831472 -0.555566 0
    outer loop
      vertex 16.4393 31.8607 5
      vertex 16.1142 31.374 6
      vertex 16.1142 31.374 5
    endloop
  endfacet
  facet normal -0.980785 0.195092 0
    outer loop
      vertex 18.8858 30.226 5
      vertex 19 30.8 6
      vertex 19 30.8 5
    endloop
  endfacet
  facet normal -0.980785 0.195092 0
    outer loop
      vertex 19 30.8 6
      vertex 18.8858 30.226 5
      vertex 18.8858 30.226 6
    endloop
  endfacet
  facet normal 0.831472 0.555566 0
    outer loop
      vertex 16.4393 29.7393 6
      vertex 16.1142 30.226 5
      vertex 16.1142 30.226 6
    endloop
  endfacet
  facet normal 0.831472 0.555566 0
    outer loop
      vertex 16.1142 30.226 5
      vertex 16.4393 29.7393 6
      vertex 16.4393 29.7393 5
    endloop
  endfacet
  facet normal -0.195092 -0.980785 0
    outer loop
      vertex 17.5 32.3 5
      vertex 18.074 32.1858 6
      vertex 17.5 32.3 6
    endloop
  endfacet
  facet normal -0.195092 -0.980785 -0
    outer loop
      vertex 18.074 32.1858 6
      vertex 17.5 32.3 5
      vertex 18.074 32.1858 5
    endloop
  endfacet
  facet normal 0.980785 -0.195092 0
    outer loop
      vertex 16 30.8 6
      vertex 16.1142 31.374 5
      vertex 16.1142 31.374 6
    endloop
  endfacet
  facet normal 0.980785 -0.195092 0
    outer loop
      vertex 16.1142 31.374 5
      vertex 16 30.8 6
      vertex 16 30.8 5
    endloop
  endfacet
  facet normal -0.555568 0.831471 0
    outer loop
      vertex 18.5607 29.7393 5
      vertex 18.074 29.4142 6
      vertex 18.5607 29.7393 6
    endloop
  endfacet
  facet normal -0.555568 0.831471 0
    outer loop
      vertex 18.074 29.4142 6
      vertex 18.5607 29.7393 5
      vertex 18.074 29.4142 5
    endloop
  endfacet
  facet normal -0.831471 0.555569 0
    outer loop
      vertex 18.5607 29.7393 5
      vertex 18.8858 30.226 6
      vertex 18.8858 30.226 5
    endloop
  endfacet
  facet normal -0.831471 0.555569 0
    outer loop
      vertex 18.8858 30.226 6
      vertex 18.5607 29.7393 5
      vertex 18.5607 29.7393 6
    endloop
  endfacet
  facet normal 0.555566 0.831472 -0
    outer loop
      vertex 16.926 29.4142 5
      vertex 16.4393 29.7393 6
      vertex 16.926 29.4142 6
    endloop
  endfacet
  facet normal 0.555566 0.831472 0
    outer loop
      vertex 16.4393 29.7393 6
      vertex 16.926 29.4142 5
      vertex 16.4393 29.7393 5
    endloop
  endfacet
  facet normal -0.195092 0.980785 0
    outer loop
      vertex 18.074 29.4142 5
      vertex 17.5 29.3 6
      vertex 18.074 29.4142 6
    endloop
  endfacet
  facet normal -0.195092 0.980785 0
    outer loop
      vertex 17.5 29.3 6
      vertex 18.074 29.4142 5
      vertex 17.5 29.3 5
    endloop
  endfacet
  facet normal 0.195092 0.980785 -0
    outer loop
      vertex 17.5 29.3 5
      vertex 16.926 29.4142 6
      vertex 17.5 29.3 6
    endloop
  endfacet
  facet normal 0.195092 0.980785 0
    outer loop
      vertex 16.926 29.4142 6
      vertex 17.5 29.3 5
      vertex 16.926 29.4142 5
    endloop
  endfacet
  facet normal -1 0 0
    outer loop
      vertex 5 31.7 6
      vertex 5 30.7 6
      vertex 5 31.7 10
    endloop
  endfacet
  facet normal -1 0 0
    outer loop
      vertex 5 31.7 10
      vertex 5 32.7 11
      vertex 5 32.7 10
    endloop
  endfacet
  facet normal -1 0 0
    outer loop
      vertex 5 31.7 10
      vertex 5 30.7 11
      vertex 5 32.7 11
    endloop
  endfacet
  facet normal -1 0 0
    outer loop
      vertex 5 30.7 11
      vertex 5 31.7 10
      vertex 5 30.7 6
    endloop
  endfacet
  facet normal 0 0 -1
    outer loop
      vertex 5 31.7 10
      vertex 15 32.7 10
      vertex 15 31.7 10
    endloop
  endfacet
  facet normal -0 0 -1
    outer loop
      vertex 15 32.7 10
      vertex 5 31.7 10
      vertex 5 32.7 10
    endloop
  endfacet
  facet normal 1 0 0
    outer loop
      vertex 15 32.7 11
      vertex 15 31.7 10
      vertex 15 32.7 10
    endloop
  endfacet
  facet normal 1 0 0
    outer loop
      vertex 15 31.7 10
      vertex 15 30.7 11
      vertex 15 31.7 8
    endloop
  endfacet
  facet normal 1 -0 0
    outer loop
      vertex 15 30.7 11
      vertex 15 31.7 10
      vertex 15 32.7 11
    endloop
  endfacet
  facet normal 1 -0 0
    outer loop
      vertex 15 31.7 8
      vertex 15 36.7 6
      vertex 15 36.7 8
    endloop
  endfacet
  facet normal 1 0 0
    outer loop
      vertex 15 31.7 8
      vertex 15 30.7 6
      vertex 15 36.7 6
    endloop
  endfacet
  facet normal 1 0 0
    outer loop
      vertex 15 30.7 6
      vertex 15 31.7 8
      vertex 15 30.7 11
    endloop
  endfacet
  facet normal 0 1 0
    outer loop
      vertex 9 31.7 8
      vertex 15 31.7 10
      vertex 15 31.7 8
    endloop
  endfacet
  facet normal 0 1 0
    outer loop
      vertex 15 31.7 10
      vertex 9 31.7 8
      vertex 5 31.7 10
    endloop
  endfacet
  facet normal 0 1 0
    outer loop
      vertex 5 31.7 6
      vertex 9 31.7 8
      vertex 9 31.7 6
    endloop
  endfacet
  facet normal 0 1 0
    outer loop
      vertex 9 31.7 8
      vertex 5 31.7 6
      vertex 5 31.7 10
    endloop
  endfacet
  facet normal 0 -1 0
    outer loop
      vertex 5 30.7 6
      vertex 15 30.7 11
      vertex 5 30.7 11
    endloop
  endfacet
  facet normal 0 -1 -0
    outer loop
      vertex 15 30.7 11
      vertex 5 30.7 6
      vertex 15 30.7 6
    endloop
  endfacet
  facet normal -0 0 1
    outer loop
      vertex 5 32.7 11
      vertex 15 30.7 11
      vertex 15 32.7 11
    endloop
  endfacet
  facet normal 0 0 1
    outer loop
      vertex 15 30.7 11
      vertex 5 32.7 11
      vertex 5 30.7 11
    endloop
  endfacet
  facet normal 0 1 -0
    outer loop
      vertex 15 32.7 10
      vertex 5 32.7 11
      vertex 15 32.7 11
    endloop
  endfacet
  facet normal 0 1 0
    outer loop
      vertex 5 32.7 11
      vertex 15 32.7 10
      vertex 5 32.7 10
    endloop
  endfacet
  facet normal -1 0 0
    outer loop
      vertex 5 50.3 10
      vertex 5 51.3 6
      vertex 5 50.3 6
    endloop
  endfacet
  facet normal -1 0 0
    outer loop
      vertex 5 51.3 6
      vertex 5 50.3 10
      vertex 5 51.3 11
    endloop
  endfacet
  facet normal -1 0 0
    outer loop
      vertex 5 49.3 11
      vertex 5 50.3 10
      vertex 5 49.3 10
    endloop
  endfacet
  facet normal -1 0 0
    outer loop
      vertex 5 50.3 10
      vertex 5 49.3 11
      vertex 5 51.3 11
    endloop
  endfacet
  facet normal 0 0 -1
    outer loop
      vertex 5 49.3 10
      vertex 15 50.3 10
      vertex 15 49.3 10
    endloop
  endfacet
  facet normal -0 0 -1
    outer loop
      vertex 15 50.3 10
      vertex 5 49.3 10
      vertex 5 50.3 10
    endloop
  endfacet
  facet normal 1 0 0
    outer loop
      vertex 15 51.3 11
      vertex 15 50.3 10
      vertex 15 51.3 6
    endloop
  endfacet
  facet normal 1 -0 0
    outer loop
      vertex 15 49.3 11
      vertex 15 50.3 10
      vertex 15 51.3 11
    endloop
  endfacet
  facet normal 1 0 0
    outer loop
      vertex 15 50.3 10
      vertex 15 49.3 11
      vertex 15 49.3 10
    endloop
  endfacet
  facet normal 1 0 0
    outer loop
      vertex 15 51.3 6
      vertex 15 50.3 10
      vertex 15 50.3 6
    endloop
  endfacet
  facet normal 0 -1 0
    outer loop
      vertex 5 50.3 6
      vertex 15 50.3 10
      vertex 5 50.3 10
    endloop
  endfacet
  facet normal 0 -1 -0
    outer loop
      vertex 15 50.3 10
      vertex 5 50.3 6
      vertex 15 50.3 6
    endloop
  endfacet
  facet normal 0 1 -0
    outer loop
      vertex 15 51.3 6
      vertex 5 51.3 11
      vertex 15 51.3 11
    endloop
  endfacet
  facet normal 0 1 0
    outer loop
      vertex 5 51.3 11
      vertex 15 51.3 6
      vertex 5 51.3 6
    endloop
  endfacet
  facet normal -0 0 1
    outer loop
      vertex 5 51.3 11
      vertex 15 49.3 11
      vertex 15 51.3 11
    endloop
  endfacet
  facet normal 0 0 1
    outer loop
      vertex 15 49.3 11
      vertex 5 51.3 11
      vertex 5 49.3 11
    endloop
  endfacet
  facet normal 0 -1 0
    outer loop
      vertex 5 49.3 10
      vertex 15 49.3 11
      vertex 5 49.3 11
    endloop
  endfacet
  facet normal 0 -1 -0
    outer loop
      vertex 15 49.3 11
      vertex 5 49.3 10
      vertex 15 49.3 10
    endloop
  endfacet
  facet normal -1 0 0
    outer loop
      vertex 33.1 31.7 6
      vertex 33.1 50.3 10
      vertex 33.1 50.3 6
    endloop
  endfacet
  facet normal -1 -0 0
    outer loop
      vertex 33.1 50.3 10
      vertex 33.1 31.7 6
      vertex 33.1 31.7 10
    endloop
  endfacet
  facet normal 0 0 -1
    outer loop
      vertex 32.1 31.7 10
      vertex 33.1 50.3 10
      vertex 33.1 31.7 10
    endloop
  endfacet
  facet normal -0 0 -1
    outer loop
      vertex 33.1 50.3 10
      vertex 32.1 31.7 10
      vertex 32.1 50.3 10
    endloop
  endfacet
  facet normal 1 -0 0
    outer loop
      vertex 34.1 31.7 11
      vertex 34.1 50.3 5
      vertex 34.1 50.3 11
    endloop
  endfacet
  facet normal 1 0 0
    outer loop
      vertex 34.1 50.3 5
      vertex 34.1 31.7 11
      vertex 34.1 31.7 5
    endloop
  endfacet
  facet normal 0 1 0
    outer loop
      vertex 34.1 50.3 11
      vertex 33.1 50.3 10
      vertex 32.1 50.3 11
    endloop
  endfacet
  facet normal 0 1 -0
    outer loop
      vertex 34.1 50.3 6
      vertex 33.1 50.3 10
      vertex 34.1 50.3 11
    endloop
  endfacet
  facet normal 0 1 0
    outer loop
      vertex 33.1 50.3 10
      vertex 34.1 50.3 6
      vertex 33.1 50.3 6
    endloop
  endfacet
  facet normal 0 1 0
    outer loop
      vertex 32.1 50.3 11
      vertex 33.1 50.3 10
      vertex 32.1 50.3 10
    endloop
  endfacet
  facet normal 0 0 0
    outer loop
      vertex 34.1 50.3 6
      vertex 34.1 50.3 11
      vertex 34.1 50.3 5
    endloop
  endfacet
  facet normal 0 -1 0
    outer loop
      vertex 33.1 31.7 10
      vertex 32.1 31.7 11
      vertex 32.1 31.7 10
    endloop
  endfacet
  facet normal 0 -1 0
    outer loop
      vertex 32.1 31.7 11
      vertex 33.1 31.7 10
      vertex 34.1 31.7 11
    endloop
  endfacet
  facet normal 0 -1 0
    outer loop
      vertex 34.1 31.7 6
      vertex 33.1 31.7 10
      vertex 33.1 31.7 6
    endloop
  endfacet
  facet normal 0 -1 0
    outer loop
      vertex 33.1 31.7 10
      vertex 34.1 31.7 6
      vertex 34.1 31.7 11
    endloop
  endfacet
  facet normal 0 0 0
    outer loop
      vertex 34.1 31.7 11
      vertex 34.1 31.7 6
      vertex 34.1 31.7 5
    endloop
  endfacet
  facet normal -1 0 0
    outer loop
      vertex 32.1 31.7 10
      vertex 32.1 50.3 11
      vertex 32.1 50.3 10
    endloop
  endfacet
  facet normal -1 -0 0
    outer loop
      vertex 32.1 50.3 11
      vertex 32.1 31.7 10
      vertex 32.1 31.7 11
    endloop
  endfacet
  facet normal -0 0 1
    outer loop
      vertex 32.1 50.3 11
      vertex 34.1 31.7 11
      vertex 34.1 50.3 11
    endloop
  endfacet
  facet normal 0 0 1
    outer loop
      vertex 34.1 31.7 11
      vertex 32.1 50.3 11
      vertex 32.1 31.7 11
    endloop
  endfacet
  facet normal -1 0 0
    outer loop
      vertex 4 33.7 7
      vertex 4 35.7 11
      vertex 4 35.7 7
    endloop
  endfacet
  facet normal -1 -0 0
    outer loop
      vertex 4 35.7 11
      vertex 4 33.7 7
      vertex 4 33.7 11
    endloop
  endfacet
  facet normal 0 0 -1
    outer loop
      vertex 5 33.7 10
      vertex 6 35.7 10
      vertex 6 33.7 10
    endloop
  endfacet
  facet normal -0 0 -1
    outer loop
      vertex 6 35.7 10
      vertex 5 33.7 10
      vertex 5 35.7 10
    endloop
  endfacet
  facet normal 1 0 0
    outer loop
      vertex 5 35.7 10
      vertex 5 33.7 10
      vertex 5 35.7 7
    endloop
  endfacet
  facet normal 1 0 0
    outer loop
      vertex 5 46.3 7
      vertex 5 48.3 10
      vertex 5 46.3 10
    endloop
  endfacet
  facet normal 1 0 0
    outer loop
      vertex 5 48.3 10
      vertex 5 46.3 7
      vertex 5 48.3 6
    endloop
  endfacet
  facet normal 1 -0 0
    outer loop
      vertex 5 35.7 7
      vertex 5 48.3 6
      vertex 5 46.3 7
    endloop
  endfacet
  facet normal 1 0 0
    outer loop
      vertex 5 33.7 7
      vertex 5 35.7 7
      vertex 5 33.7 10
    endloop
  endfacet
  facet normal 1 0 0
    outer loop
      vertex 5 33.7 6
      vertex 5 35.7 7
      vertex 5 33.7 7
    endloop
  endfacet
  facet normal 1 0 0
    outer loop
      vertex 5 35.7 7
      vertex 5 33.7 6
      vertex 5 48.3 6
    endloop
  endfacet
  facet normal 0 -1 0
    outer loop
      vertex 4 33.7 11
      vertex 5 33.7 10
      vertex 6 33.7 11
    endloop
  endfacet
  facet normal 0 -1 0
    outer loop
      vertex 4 33.7 7
      vertex 5 33.7 10
      vertex 4 33.7 11
    endloop
  endfacet
  facet normal 0 -1 -0
    outer loop
      vertex 5 33.7 10
      vertex 4 33.7 7
      vertex 5 33.7 7
    endloop
  endfacet
  facet normal 0 -1 -0
    outer loop
      vertex 6 33.7 11
      vertex 5 33.7 10
      vertex 6 33.7 10
    endloop
  endfacet
  facet normal 0 1 0
    outer loop
      vertex 5 35.7 10
      vertex 6 35.7 11
      vertex 6 35.7 10
    endloop
  endfacet
  facet normal 0 1 0
    outer loop
      vertex 6 35.7 11
      vertex 5 35.7 10
      vertex 4 35.7 11
    endloop
  endfacet
  facet normal 0 1 0
    outer loop
      vertex 4 35.7 7
      vertex 5 35.7 10
      vertex 5 35.7 7
    endloop
  endfacet
  facet normal 0 1 0
    outer loop
      vertex 5 35.7 10
      vertex 4 35.7 7
      vertex 4 35.7 11
    endloop
  endfacet
  facet normal -0 0 1
    outer loop
      vertex 4 35.7 11
      vertex 6 33.7 11
      vertex 6 35.7 11
    endloop
  endfacet
  facet normal 0 0 1
    outer loop
      vertex 6 33.7 11
      vertex 4 35.7 11
      vertex 4 33.7 11
    endloop
  endfacet
  facet normal 1 -0 0
    outer loop
      vertex 6 33.7 11
      vertex 6 35.7 10
      vertex 6 35.7 11
    endloop
  endfacet
  facet normal 1 0 0
    outer loop
      vertex 6 35.7 10
      vertex 6 33.7 11
      vertex 6 33.7 10
    endloop
  endfacet
  facet normal -1 0 0
    outer loop
      vertex 4 46.3 7
      vertex 4 48.3 11
      vertex 4 48.3 7
    endloop
  endfacet
  facet normal -1 -0 0
    outer loop
      vertex 4 48.3 11
      vertex 4 46.3 7
      vertex 4 46.3 11
    endloop
  endfacet
  facet normal 0 0 0
    outer loop
      vertex 4 48.3 7
      vertex 4 48.3 11
      vertex 4 48.3 6
    endloop
  endfacet
  facet normal 0 0 -1
    outer loop
      vertex 5 46.3 10
      vertex 6 48.3 10
      vertex 6 46.3 10
    endloop
  endfacet
  facet normal -0 0 -1
    outer loop
      vertex 6 48.3 10
      vertex 5 46.3 10
      vertex 5 48.3 10
    endloop
  endfacet
  facet normal 0 1 0
    outer loop
      vertex 5 48.3 10
      vertex 6 48.3 11
      vertex 6 48.3 10
    endloop
  endfacet
  facet normal 0 1 0
    outer loop
      vertex 6 48.3 11
      vertex 5 48.3 10
      vertex 4 48.3 11
    endloop
  endfacet
  facet normal 0 1 0
    outer loop
      vertex 4 48.3 6
      vertex 5 48.3 10
      vertex 5 48.3 6
    endloop
  endfacet
  facet normal 0 1 0
    outer loop
      vertex 5 48.3 10
      vertex 4 48.3 6
      vertex 4 48.3 11
    endloop
  endfacet
  facet normal 0 -1 0
    outer loop
      vertex 4 46.3 11
      vertex 5 46.3 10
      vertex 6 46.3 11
    endloop
  endfacet
  facet normal 0 -1 0
    outer loop
      vertex 4 46.3 7
      vertex 5 46.3 10
      vertex 4 46.3 11
    endloop
  endfacet
  facet normal 0 -1 -0
    outer loop
      vertex 5 46.3 10
      vertex 4 46.3 7
      vertex 5 46.3 7
    endloop
  endfacet
  facet normal 0 -1 -0
    outer loop
      vertex 6 46.3 11
      vertex 5 46.3 10
      vertex 6 46.3 10
    endloop
  endfacet
  facet normal -0 0 1
    outer loop
      vertex 4 48.3 11
      vertex 6 46.3 11
      vertex 6 48.3 11
    endloop
  endfacet
  facet normal 0 0 1
    outer loop
      vertex 6 46.3 11
      vertex 4 48.3 11
      vertex 4 46.3 11
    endloop
  endfacet
  facet normal 1 -0 0
    outer loop
      vertex 6 46.3 11
      vertex 6 48.3 10
      vertex 6 48.3 11
    endloop
  endfacet
  facet normal 1 0 0
    outer loop
      vertex 6 48.3 10
      vertex 6 46.3 11
      vertex 6 46.3 10
    endloop
  endfacet
  facet normal -1 0 0
    outer loop
      vertex 9 31.7 6
      vertex 9 50.3 8
      vertex 9 50.3 6
    endloop
  endfacet
  facet normal -1 -0 0
    outer loop
      vertex 9 50.3 8
      vertex 9 31.7 6
      vertex 9 31.7 8
    endloop
  endfacet
  facet normal -0 0 1
    outer loop
      vertex 9 50.3 8
      vertex 15 45.3 8
      vertex 15 50.3 8
    endloop
  endfacet
  facet normal 0 0 1
    outer loop
      vertex 15 45.3 8
      vertex 9 50.3 8
      vertex 15 36.7 8
    endloop
  endfacet
  facet normal 0 0 1
    outer loop
      vertex 9 31.7 8
      vertex 15 36.7 8
      vertex 9 50.3 8
    endloop
  endfacet
  facet normal 0 0 1
    outer loop
      vertex 15 36.7 8
      vertex 9 31.7 8
      vertex 15 31.7 8
    endloop
  endfacet
  facet normal -0 0 1
    outer loop
      vertex 15 45.3 8
      vertex 30.1 36.7 8
      vertex 30.1 45.3 8
    endloop
  endfacet
  facet normal 0 0 1
    outer loop
      vertex 30.1 36.7 8
      vertex 15 45.3 8
      vertex 15 36.7 8
    endloop
  endfacet
  facet normal 1 -0 0
    outer loop
      vertex 15 45.3 8
      vertex 15 50.3 6
      vertex 15 50.3 8
    endloop
  endfacet
  facet normal 1 0 0
    outer loop
      vertex 15 50.3 6
      vertex 15 45.3 8
      vertex 15 45.3 6
    endloop
  endfacet
  facet normal 0 1 -0
    outer loop
      vertex 15 50.3 6
      vertex 9 50.3 8
      vertex 15 50.3 8
    endloop
  endfacet
  facet normal 0 1 0
    outer loop
      vertex 9 50.3 8
      vertex 15 50.3 6
      vertex 9 50.3 6
    endloop
  endfacet
  facet normal 1 -0 0
    outer loop
      vertex 30.1 36.7 8
      vertex 30.1 45.3 6
      vertex 30.1 45.3 8
    endloop
  endfacet
  facet normal 1 0 0
    outer loop
      vertex 30.1 45.3 6
      vertex 30.1 36.7 8
      vertex 30.1 36.7 6
    endloop
  endfacet
  facet normal 0 1 -0
    outer loop
      vertex 30.1 45.3 6
      vertex 15 45.3 8
      vertex 30.1 45.3 8
    endloop
  endfacet
  facet normal 0 1 0
    outer loop
      vertex 15 45.3 8
      vertex 30.1 45.3 6
      vertex 15 45.3 6
    endloop
  endfacet
  facet normal 0 -1 0
    outer loop
      vertex 15 36.7 6
      vertex 30.1 36.7 8
      vertex 15 36.7 8
    endloop
  endfacet
  facet normal 0 -1 -0
    outer loop
      vertex 30.1 36.7 8
      vertex 15 36.7 6
      vertex 30.1 36.7 6
    endloop
  endfacet
  facet normal -1 0 0
    outer loop
      vertex 3 33.7 6
      vertex 3 48.3 7
      vertex 3 48.3 6
    endloop
  endfacet
  facet normal -1 -0 0
    outer loop
      vertex 3 48.3 7
      vertex 3 33.7 6
      vertex 3 33.7 7
    endloop
  endfacet
  facet normal -0 0 1
    outer loop
      vertex 3 48.3 7
      vertex 4 46.3 7
      vertex 4 48.3 7
    endloop
  endfacet
  facet normal 0 0 1
    outer loop
      vertex 4 46.3 7
      vertex 3 48.3 7
      vertex 4 35.7 7
    endloop
  endfacet
  facet normal 0 0 1
    outer loop
      vertex 3 33.7 7
      vertex 4 35.7 7
      vertex 3 48.3 7
    endloop
  endfacet
  facet normal 0 0 1
    outer loop
      vertex 4 35.7 7
      vertex 3 33.7 7
      vertex 4 33.7 7
    endloop
  endfacet
  facet normal -0 0 1
    outer loop
      vertex 4 46.3 7
      vertex 5 35.7 7
      vertex 5 46.3 7
    endloop
  endfacet
  facet normal 0 0 1
    outer loop
      vertex 5 35.7 7
      vertex 4 46.3 7
      vertex 4 35.7 7
    endloop
  endfacet
  facet normal 0 0 0
    outer loop
      vertex 4 33.7 7
      vertex 3 33.7 7
      vertex 5 33.7 7
    endloop
  endfacet
  facet normal 0 -1 0
    outer loop
      vertex 3 33.7 6
      vertex 5 33.7 7
      vertex 3 33.7 7
    endloop
  endfacet
  facet normal 0 -1 -0
    outer loop
      vertex 5 33.7 7
      vertex 3 33.7 6
      vertex 5 33.7 6
    endloop
  endfacet
  facet normal 0 1 -0
    outer loop
      vertex 4 48.3 6
      vertex 3 48.3 7
      vertex 4 48.3 7
    endloop
  endfacet
  facet normal 0 1 0
    outer loop
      vertex 3 48.3 7
      vertex 4 48.3 6
      vertex 3 48.3 6
    endloop
  endfacet
endsolid OpenSCAD_Model
